<?xml version="1.0" encoding="UTF-8"?><svg width="73px" height="90px" viewBox="0 0 73 90" version="1.1" xmlns="http://www.w3.org/2000/svg" xmlns:xlink="http://www.w3.org/1999/xlink"><title>Photogenic</title><desc>Created with Sketch.</desc><g id="Photogenic" stroke="none" stroke-width="1" fill="none" fill-rule="evenodd"><path d="M14,0 L59.0000325,0 C66.732019,-3.19669972e-15 73.0000325,6.2680135 73.0000325,14 L73.0000325,76 C73.0000325,83.7319865 66.732019,90 59.0000325,90 L14,90 C6.2680135,90 4.49960893e-15,83.7319865 0,76 L0,14 C-2.72325209e-15,6.2680135 6.2680135,-3.56013962e-16 14,0 Z" id="Shield-Copy-15" fill="#168CC4" fill-rule="nonzero"/><path d="M14,0 L59.0000325,0 C66.732019,2.1323708e-15 73.0000325,6.2680135 73.0000325,14 L73.0000325,72 C73.0000325,79.7319865 66.732019,86 59.0000325,86 L14,86 C6.2680135,86 1.67924438e-13,79.7319865 1.63424829e-13,72 L1.63424829e-13,14 C1.64254291e-13,6.2680135 6.2680135,1.42034288e-15 14,0 Z" id="Shield-Copy-16" fill="#1CB0F6" fill-rule="nonzero"/><path d="M24.4569257,13.7248453 L57.455195,13.7074802 C58.9463636,13.7066955 60.1558308,14.9148904 60.1566155,16.406059 C60.156616,16.4070053 60.156616,16.4079517 60.1566155,16.4088981 L60.1378355,52.1609985 C60.1370528,53.6510584 58.9293167,54.8587957 57.4392567,54.8595798 L24.4409874,54.8769449 C22.9498188,54.8777296 21.7403517,53.6695347 21.739567,52.1783661 C21.7395665,52.1774197 21.7395665,52.1764734 21.739567,52.175527 L21.758347,16.4234266 C21.7591297,14.9333666 22.9668657,13.7256294 24.4569257,13.7248453 Z" id="Rectangle" fill="#C7ECFD" transform="translate(40.948091, 34.292213) rotate(-15.000000) translate(-40.948091, -34.292213)"/><path d="M17.7,9 L55.1571429,9 C56.6483117,9 57.8571429,10.2088312 57.8571429,11.7 L57.8571429,51.9315789 C57.8571429,53.4227478 56.6483117,54.6315789 55.1571429,54.6315789 L17.7,54.6315789 C16.2088312,54.6315789 15,53.4227478 15,51.9315789 L15,11.7 C15,10.2088312 16.2088312,9 17.7,9 Z" id="Rectangle" fill="#FFFFFF"/><path d="M21.2642857,13.4736842 L51.5928571,13.4736842 C52.5869697,13.4736842 53.3928571,14.2795717 53.3928571,15.2736842 L53.3928571,41.2 C53.3928571,42.1941125 52.5869697,43 51.5928571,43 L21.2642857,43 C20.2701732,43 19.4642857,42.1941125 19.4642857,41.2 L19.4642857,15.2736842 C19.4642857,14.2795717 20.2701732,13.4736842 21.2642857,13.4736842 Z" id="Rectangle" fill="#C7ECFD"/><rect id="Rectangle" fill="#1CB0F6" x="30.7226562" y="17.0526316" width="12.3046875" height="16.0435572" rx="6.15234375"/><rect id="Rectangle-Copy-22" fill="#1CB0F6" transform="translate(36.875000, 32.787659) scale(-1, 1) translate(-36.875000, -32.787659)" x="34.2382812" y="29.3938294" width="5.2734375" height="6.7876588" rx="2.63671875"/><ellipse id="Oval" fill="#1CB0F6" cx="43.0273438" cy="25.6914701" rx="2.05078125" ry="2.15970962"/><ellipse id="Oval-Copy-7" fill="#1CB0F6" cx="30.7226562" cy="25.6914701" rx="2.05078125" ry="2.15970962"/><path d="M36.875,33.0961887 C42.0526695,33.0961887 46.25,37.2935192 46.25,42.4711887 L46.25,43 L27.5,43 L27.5,42.4711887 C27.5,37.2935192 31.6973305,33.0961887 36.875,33.0961887 Z" id="Rectangle-Copy-21" fill="#1CB0F6"/></g></svg>