<?xml version="1.0" encoding="UTF-8"?><svg width="73px" height="90px" viewBox="0 0 73 90" version="1.1" xmlns="http://www.w3.org/2000/svg" xmlns:xlink="http://www.w3.org/1999/xlink"><title>Friendly</title><desc>Created with Sketch.</desc><g id="Friendly" stroke="none" stroke-width="1" fill="none" fill-rule="evenodd"><path d="M14,0 L59.0000325,0 C66.732019,-3.19669972e-15 73.0000325,6.2680135 73.0000325,14 L73.0000325,76 C73.0000325,83.7319865 66.732019,90 59.0000325,90 L14,90 C6.2680135,90 1.67924438e-13,83.7319865 1.63424829e-13,76 L1.63424829e-13,14 C1.60701577e-13,6.2680135 6.2680135,-3.56013962e-16 14,0 Z" id="Shield-Copy-13" fill="#AC68D7" fill-rule="nonzero"/><path d="M14,0 L59.0000325,0 C66.732019,2.1323708e-15 73.0000325,6.2680135 73.0000325,14 L73.0000325,72 C73.0000325,79.7319865 66.732019,86 59.0000325,86 L14,86 C6.2680135,86 1.67924438e-13,79.7319865 1.63424829e-13,72 L1.63424829e-13,14 C1.64254291e-13,6.2680135 6.2680135,1.42034288e-15 14,0 Z" id="Shield-Copy-14" fill="#CE82FF" fill-rule="nonzero"/><path d="M46.8888889,22.9953402 C52.9167913,22.9953402 58.178361,27.0803303 59.6723162,32.920168 L63.8987646,49.4412619 C64.8569123,53.1866399 62.5974156,56.9996009 58.8520375,57.9577486 C58.2851453,58.1027717 57.702306,58.1761417 57.1171577,58.1761417 L36.66062,58.1761417 C32.7946268,58.1761417 29.66062,55.0421349 29.66062,51.1761417 C29.66062,50.5909934 29.73399,50.0081541 29.8790132,49.4412619 L34.1054616,32.920168 C35.5994168,27.0803303 40.8609865,22.9953402 46.8888889,22.9953402 Z" id="Rectangle-Copy-130" fill="#363636"/><path d="M46.8888889,27.5191053 C52.9394751,27.5191053 57.8444444,32.4240746 57.8444444,38.4746609 L57.8444444,44.0444444 C57.8444444,50.0950307 52.9394751,55 46.8888889,55 C40.8383026,55 35.9333333,50.0950307 35.9333333,44.0444444 L35.9333333,38.4746609 C35.9333333,32.4240746 40.8383026,27.5191053 46.8888889,27.5191053 Z" id="Rectangle-Copy-130" fill="#A56644"/><path d="M33.2631111,25.2 C33.2631111,24.8421195 33.5532306,24.552 33.9111111,24.552 L52.9111111,24.552 C53.2689916,24.552 53.5591111,24.8421195 53.5591111,25.2 C53.5591111,30.5284433 49.2395544,34.848 43.9111111,34.848 L33.9111111,34.848 C33.5532306,34.848 33.2631111,34.5578805 33.2631111,34.2 L33.2631111,25.2 Z M34.5591111,33.552 L43.9111111,33.552 C48.3057407,33.552 51.9076263,30.1578592 52.2383453,25.848 L34.5591111,25.848 L34.5591111,33.552 Z" id="Rectangle-Copy-138" fill="#363636" fill-rule="nonzero"/><path d="M33.9111111,25.2 L52.9111111,25.2 C52.9111111,30.1705627 48.8816739,34.2 43.9111111,34.2 L33.9111111,34.2 L33.9111111,25.2 Z" id="Rectangle-Copy-138" fill="#363636"/><path d="M41.952,43.4808947 C41.952,43.1230142 42.2421195,42.8328947 42.6,42.8328947 L51.1777778,42.8328947 C51.5356583,42.8328947 51.8257778,43.1230142 51.8257778,43.4808947 L51.8257778,44.187346 C51.8257778,46.9139144 49.6154573,49.1242349 46.8888889,49.1242349 C44.1623204,49.1242349 41.952,46.9139144 41.952,44.187346 L41.952,43.4808947 Z M43.248,44.187346 C43.248,46.1981534 44.8780815,47.8282349 46.8888889,47.8282349 C48.8996963,47.8282349 50.5297778,46.1981534 50.5297778,44.187346 L50.5297778,44.1288947 L43.248,44.1288947 L43.248,44.187346 Z" id="Rectangle-Copy-131" fill="#FFFFFF" fill-rule="nonzero"/><path d="M42.6,43.4808947 L51.1777778,43.4808947 L51.1777778,44.187346 C51.1777778,46.5560339 49.2575768,48.4762349 46.8888889,48.4762349 C44.520201,48.4762349 42.6,46.5560339 42.6,44.187346 L42.6,43.4808947 Z" id="Rectangle-Copy-131" fill="#FFFFFF"/><rect id="Rectangle-Copy-132" fill="#7B482D" x="48.8222222" y="35.6523765" width="2.57777778" height="5.21901212" rx="1.28888889"/><rect id="Rectangle-Copy-133" fill="#7B482D" x="42.3777778" y="35.6523765" width="2.57777778" height="5.21901212" rx="1.28888889"/><ellipse id="Oval-Copy-23" fill="#A56644" cx="58.9111111" cy="39.5666356" rx="3.86666667" ry="3.91425909"/><ellipse id="Oval-Copy-24" fill="#A56644" cx="34.8666667" cy="39.5666356" rx="3.86666667" ry="3.91425909"/><path d="M13.4408889,9 C13.4408889,8.64211948 13.7310084,8.352 14.0888889,8.352 L34.0383392,8.35439998 L36.3255331,8.55179807 C36.5780692,8.57359339 36.7947124,8.74063204 36.8800163,8.97932171 L38.7435355,14.1936576 L38.7813333,14.411734 L38.7813333,14.7575 C38.7813333,21.6765233 33.1723567,27.2855 26.2533333,27.2855 L25.9688889,27.2855 C19.0498655,27.2855 13.4408889,21.6765233 13.4408889,14.7575 L13.4408889,9 Z M14.7368889,9.648 L14.7368889,14.7575 C14.7368889,20.9607623 19.7656266,25.9895 25.9688889,25.9895 L26.2533333,25.9895 C32.4565956,25.9895 37.4853333,20.9607623 37.4853333,14.7575 L37.4853333,14.5240478 L35.7994526,9.80676446 L33.9826202,9.648 L14.7368889,9.648 Z" id="Rectangle-Copy-139" fill="#FFD900" fill-rule="nonzero" transform="translate(26.111111, 17.818750) rotate(-180.000000) translate(-26.111111, -17.818750)"/><path d="M14.0888889,9 L33.9826202,9 L36.2698141,9.19739809 L38.1333333,14.411734 L38.1333333,14.7575 C38.1333333,21.3186428 32.8144762,26.6375 26.2533333,26.6375 L25.9688889,26.6375 C19.4077461,26.6375 14.0888889,21.3186428 14.0888889,14.7575 L14.0888889,9 Z" id="Rectangle-Copy-139" fill="#FFD900" transform="translate(26.111111, 17.818750) rotate(-180.000000) translate(-26.111111, -17.818750)"/><ellipse id="Oval-Copy-18" fill="#FFAD92" cx="38.1333333" cy="27.9125" rx="3.86666667" ry="3.825"/><ellipse id="Oval-Copy-19" fill="#FFAD92" cx="14.0888889" cy="27.9125" rx="3.86666667" ry="3.825"/><path d="M20.5555556,16.2875 L31.6666667,16.2875 C34.6490043,16.2875 37.0666667,18.7051624 37.0666667,21.6875 L37.0666667,32.0444444 C37.0666667,38.0950307 32.1616974,43 26.1111111,43 C20.0605249,43 15.1555556,38.0950307 15.1555556,32.0444444 L15.1555556,21.6875 C15.1555556,18.7051624 17.5732179,16.2875 20.5555556,16.2875 Z" id="Rectangle-Copy-126" fill="#FFAD92"/><rect id="Rectangle-Copy-128" fill="#C97356" x="28.0444444" y="24.0875" width="2.57777778" height="5.1" rx="1.28888889"/><rect id="Rectangle-Copy-129" fill="#C97356" x="21.6" y="24.0875" width="2.57777778" height="5.1" rx="1.28888889"/><path d="M9.352,15.1625 C9.352,14.8046195 9.64211948,14.5145 10,14.5145 L31.9111111,14.5145 C32.2689916,14.5145 32.5591111,14.8046195 32.5591111,15.1625 C32.5591111,21.153685 27.7022961,26.0105 21.7111111,26.0105 L20.2,26.0105 C14.208815,26.0105 9.352,21.153685 9.352,15.1625 Z M20.2,24.7145 L21.7111111,24.7145 C26.768756,24.7145 30.9083192,20.7837255 31.2414774,15.8105 L10.6696337,15.8105 C11.0027919,20.7837255 15.1423552,24.7145 20.2,24.7145 Z" id="Rectangle-Copy-138" fill="#FFD900" fill-rule="nonzero"/><path d="M10,15.1625 L31.9111111,15.1625 C31.9111111,20.7958044 27.3444156,25.3625 21.7111111,25.3625 L20.2,25.3625 C14.5666956,25.3625 10,20.7958044 10,15.1625 L10,15.1625 Z" id="Rectangle-Copy-138" fill="#FFD900"/><path d="M23,36 C26.8659932,36 30,32.8659932 30,29 C30,28.4477153 29.5522847,28 29,28 C28.4477153,28 28,28.4477153 28,29 C28,31.7614237 25.7614237,34 23,34 C22.4477153,34 22,34.4477153 22,35 C22,35.5522847 22.4477153,36 23,36 Z" id="Path" fill="#DE8A6E" fill-rule="nonzero" transform="translate(26.000000, 32.000000) rotate(-315.000000) translate(-26.000000, -32.000000)"/></g></svg>