<svg width="25" height="16" viewBox="0 0 25 16" fill="none" xmlns="http://www.w3.org/2000/svg"><path d="M18.3618 11.5624C18.3618 12.3444 18.8448 12.7814 19.4888 12.7814C20.1558 12.7814 20.6388 12.3444 20.6388 11.5624V8.89444C20.6388 8.80244 20.6848 8.75644 20.7768 8.75644H23.4448C24.1808 8.75644 24.6178 8.29644 24.6178 7.65244C24.6178 7.00844 24.1808 6.54844 23.4448 6.54844H20.7768C20.6848 6.54844 20.6388 6.50244 20.6388 6.41044V3.74244C20.6388 2.96044 20.1558 2.52344 19.4888 2.52344C18.8448 2.52344 18.3618 2.96044 18.3618 3.74244V6.41044C18.3618 6.50244 18.3158 6.54844 18.2238 6.54844H15.5558C14.8198 6.54844 14.3828 7.00844 14.3828 7.65244C14.3828 8.29644 14.8198 8.75644 15.5558 8.75644H18.2238C18.3158 8.75644 18.3618 8.80244 18.3618 8.89444V11.5624Z" fill="white"/><circle cx="6" cy="4.5" r="4" fill="white"/><path d="M0 14.6667C0 12.3655 1.86548 10.5 4.16667 10.5H7.83333C10.1345 10.5 12 12.3655 12 14.6667C12 15.1269 11.6269 15.5 11.1667 15.5H0.833333C0.373096 15.5 0 15.1269 0 14.6667Z" fill="white"/></svg>