<?xml version="1.0" encoding="utf-8"?>
<!-- Generator: Adobe Illustrator 21.0.0, SVG Export Plug-In . SVG Version: 6.00 Build 0)  -->
<svg version="1.1" id="Layer_1" xmlns="http://www.w3.org/2000/svg" xmlns:xlink="http://www.w3.org/1999/xlink" x="0px" y="0px"
	 viewBox="0 0 512 512" style="enable-background:new 0 0 512 512;" xml:space="preserve">
<g>
	<path d="M273.3,0l-65,108.3l-40.1-40.1L153,85.6C77.5,171.2,39.1,249,39.1,316.8C39.1,424.4,136.4,512,256,512
		s216.9-87.6,216.9-195.2c0-103.3-112.7-230.6-179.9-297.3L273.3,0z M281.8,70.1c55.9,58.3,147.7,166.2,147.7,246.7
		c0,51.9-29.9,97.7-75.4,125.1c6.5-15.5,10.3-32.5,10.3-50.7c0-51.6-36.5-112.9-67.2-155.2L279,210.8l-48,72l-30.5-30.5l-14.3,23.6
		c-25.6,42.2-38.5,81-38.5,115.3c0,18.2,3.9,35.2,10.3,50.7c-45.5-27.4-75.4-73.2-75.4-125.1c0-51.8,30.3-115.4,88-185l46.4,46.5
		L281.8,70.1z M279.9,287.5c26.7,41.6,41.1,77.8,41.1,103.7c0,42.7-29.2,77.4-65.1,77.4s-65.1-34.7-65.1-77.4
		c0-20,6.3-42.9,18.8-68.3l28,28L279.9,287.5z"/>
</g>
</svg>
