<svg width="16" height="13" viewBox="0 0 16 13" fill="none" xmlns="http://www.w3.org/2000/svg"><circle cx="3.42988" cy="2.28584" r="2.28584" fill="#CDCDCD"/><path d="M0 9.14361C0 7.24995 1.53511 5.71484 3.42876 5.71484C5.32242 5.71484 6.85752 7.24995 6.85752 9.14361V12.0449C6.85752 12.3362 6.62135 12.5724 6.33002 12.5724H0.527502C0.236171 12.5724 0 12.3362 0 12.0449V9.14361Z" fill="#CDCDCD"/><circle cx="12.5705" cy="2.28584" r="2.28584" fill="#CDCDCD"/><path d="M9.14062 9.14361C9.14062 7.24995 10.6757 5.71484 12.5694 5.71484C14.463 5.71484 15.9981 7.24995 15.9981 9.14361V12.0449C15.9981 12.3362 15.762 12.5724 15.4706 12.5724H9.66813C9.3768 12.5724 9.14062 12.3362 9.14062 12.0449V9.14361Z" fill="#CDCDCD"/></svg>