<?xml version="1.0" encoding="iso-8859-1"?>
<!-- Generator: Adobe Illustrator 19.0.0, SVG Export Plug-In . SVG Version: 6.00 Build 0)  -->
<svg version="1.1" id="Layer_1" xmlns="http://www.w3.org/2000/svg" xmlns:xlink="http://www.w3.org/1999/xlink" x="0px" y="0px"
	 viewBox="0 0 512.001 512.001" style="enable-background:new 0 0 512.001 512.001;" xml:space="preserve">
<path style="fill:#D1E7F8;" d="M473.043,512.001H38.957c-9.223,0-16.696-7.473-16.696-16.696V255.392
	c0-5.978,3.196-11.494,8.375-14.473c5.185-2.979,11.56-2.956,16.722,0.043c4.452,2.592,9.115,3.908,13.86,3.908
	c15.342,0,27.826-12.484,27.826-27.826v-3.005c0-9.223,7.473-16.696,16.696-16.696c8.891,0,16.479,6.968,16.929,15.842
	c0.907,17.766,15.472,31.685,33.158,31.685s32.25-13.919,33.158-31.685c0.451-8.875,7.782-15.842,16.673-15.842
	c8.891,0,16.733,6.968,17.184,15.842c0.908,17.766,15.474,31.685,33.159,31.685s32.25-13.919,33.158-31.685
	c0.451-8.875,7.782-15.842,16.673-15.842s16.733,6.968,17.184,15.842c0.908,17.766,15.474,31.685,33.159,31.685
	s32.25-13.919,33.158-31.685c0.451-8.875,7.782-15.842,16.673-15.842c9.223,0,16.951,7.473,16.951,16.696v3.005
	c0,15.342,12.484,27.826,27.826,27.826c4.745,0,9.407-1.316,13.858-3.908c5.173-3.005,11.549-3.027,16.722-0.043
	c5.179,2.979,8.375,8.495,8.375,14.473v239.913C489.739,504.528,482.266,512.001,473.043,512.001z"/>
<path style="fill:#C2DFF6;" d="M473.043,512.001c9.223,0,16.696-7.473,16.696-16.696V255.392c0-5.978-3.196-11.494-8.375-14.473
	c-5.173-2.984-11.549-2.962-16.722,0.043c-4.452,2.592-9.115,3.908-13.86,3.908c-15.342,0-27.826-12.484-27.826-27.826v-3.005
	c0-9.223-7.728-16.696-16.951-16.696c-8.891,0-16.223,6.968-16.673,15.842c-0.908,17.766-15.474,31.685-33.159,31.685
	s-32.25-13.919-33.158-31.685c-0.451-8.875-8.293-15.842-17.184-15.842c-8.891,0-16.223,6.968-16.673,15.842
	C288.25,230.952,273.685,244.87,256,244.87v267.13H473.043z"/>
<path style="fill:#AA6100;" d="M461.913,100.174H50.087c-9.223,0-16.696-7.473-16.696-16.696V27.827
	c0-15.342,12.484-27.826,27.826-27.826h389.565c15.342,0,27.826,12.484,27.826,27.826v55.652
	C478.609,92.701,471.136,100.174,461.913,100.174z"/>
<path style="fill:#884E00;" d="M450.783,0.001H256v100.174h205.913c9.223,0,16.696-7.473,16.696-16.696V27.827
	C478.609,12.484,466.125,0.001,450.783,0.001z"/>
<polygon style="fill:#FFDA44;" points="512,166.957 0,166.957 33.391,66.783 478.609,66.783 "/>
<polygon style="fill:#FFA733;" points="256,166.957 512,166.957 478.609,66.783 256,66.783 "/>
<path style="fill:#FF5023;" d="M453,278.222c-19.239,0.683-36.615-7.565-48.294-20.912c-12.184,12.891-29.434,20.951-48.532,20.951
	c-19.923,0-37.842-8.772-50.087-22.657c-12.245,13.885-30.163,22.657-50.087,22.657s-37.842-8.772-50.087-22.657
	c-12.245,13.885-30.163,22.657-50.087,22.657c-19.098,0-36.348-8.06-48.533-20.951c-11.679,13.346-29.055,21.595-48.294,20.912
	C25.62,277.036,0,247.841,0,214.441v-47.484h512v47.484C512,247.841,486.38,277.036,453,278.222z"/>
<path style="fill:#CD2A00;" d="M256,278.261c19.923,0,37.842-8.772,50.087-22.657c12.245,13.885,30.163,22.657,50.087,22.657
	c19.098,0,36.348-8.06,48.533-20.951c11.679,13.346,29.055,21.595,48.294,20.912c33.38-1.186,59-30.382,59-63.781v-47.485H256
	V278.261z"/>
<path style="fill:#884E00;" d="M456.348,512.001H322.783V317.218c0-9.22,7.475-16.696,16.696-16.696h100.174
	c9.22,0,16.696,7.475,16.696,16.696V512.001z"/>
<path style="fill:#00D7DF;" d="M222.609,428.522c0,9.22-7.475,16.696-16.696,16.696H72.348c-9.22,0-16.696-7.475-16.696-16.696
	V317.218c0-9.22,7.475-16.696,16.696-16.696h133.565c9.22,0,16.696,7.475,16.696,16.696V428.522z"/>
<polygon style="fill:#FF5023;" points="256,111.305 256,66.783 33.391,66.783 18.55,111.305 "/>
<polygon style="fill:#CD2A00;" points="493.45,111.305 478.609,66.783 256,66.783 256,111.305 "/>
<g>
</g>
<g>
</g>
<g>
</g>
<g>
</g>
<g>
</g>
<g>
</g>
<g>
</g>
<g>
</g>
<g>
</g>
<g>
</g>
<g>
</g>
<g>
</g>
<g>
</g>
<g>
</g>
<g>
</g>
</svg>
