<svg xmlns="http://www.w3.org/2000/svg" viewBox="0 0 133 73" width="133" height="73" preserveAspectRatio="xMidYMid meet" style="width: 100%; height: 100%; transform: translate3d(0px, 0px, 0px);"><defs><clipPath id="__lottie_element_1244"><rect width="133" height="73" x="0" y="0"></rect></clipPath><clipPath id="__lottie_element_1246"><path d="M0,0 L750,0 L750,750 L0,750z"></path></clipPath><clipPath id="__lottie_element_1250"><path d="M0,0 L600,0 L600,300 L0,300z"></path></clipPath></defs><g clip-path="url(#__lottie_element_1244)"><g clip-path="url(#__lottie_element_1246)" transform="matrix(0.3700000047683716,0,0,0.3700000047683716,-75.75,-99.75)" opacity="1" style="display: block;"><g clip-path="url(#__lottie_element_1250)" transform="matrix(1,0,0,1,69.06298828125,225.83999633789062)" opacity="1" style="display: block;"><g transform="matrix(1,0,0,1,253.70199584960938,160.21800231933594)" opacity="1" style="display: block;"><g opacity="1" transform="matrix(6,0,0,6,0,0)"><path fill="rgb(255,255,255)" fill-opacity="1" d=" M-15.24899959564209,1.88100004196167 C-15.329000473022461,1.6510000228881836 -15.39900016784668,1.4110000133514404 -15.458999633789062,1.180999994277954 C-16.9689998626709,-4.459000110626221 -13.548999786376953,-10.288999557495117 -7.809000015258789,-11.819000244140625 C-2.069000005722046,-13.359000205993652 3.811000108718872,-10.029000282287598 5.321000099182129,-4.388999938964844 C5.38100004196167,-4.158999919891357 5.440999984741211,-3.9189999103546143 5.480999946594238,-3.678999900817871 C5.60099983215332,-3.1089999675750732 5.230999946594238,-2.5390000343322754 4.660999774932861,-2.378999948501587 C4.660999774932861,-2.378999948501587 -13.878999710083008,2.5810000896453857 -13.878999710083008,2.5810000896453857 C-14.458999633789062,2.740999937057495 -15.059000015258789,2.430999994277954 -15.24899959564209,1.88100004196167z M-0.4020000100135803,7.360000133514404 C-0.4020000100135803,7.360000133514404 -6.76200008392334,9.100000381469727 -6.76200008392334,9.100000381469727 C-6.76200008392334,9.100000381469727 -6.76200008392334,10.640000343322754 -6.76200008392334,10.640000343322754 C-6.76200008392334,11.5 -7.461999893188477,12.199999809265137 -8.321999549865723,12.199999809265137 C-8.321999549865723,12.199999809265137 -12.362000465393066,12.199999809265137 -12.362000465393066,12.199999809265137 C-13.222000122070312,12.199999809265137 -13.92199993133545,11.5 -13.92199993133545,10.640000343322754 C-13.92199993133545,10.640000343322754 -13.92199993133545,9.25 -13.92199993133545,9.25 C-13.92199993133545,9.25 -17.95199966430664,9.289999961853027 -17.95199966430664,9.289999961853027 C-18.691999435424805,9.300000190734863 -19.29199981689453,8.699999809265137 -19.302000045776367,7.960000038146973 C-19.312000274658203,7.360000133514404 -18.91200065612793,6.829999923706055 -18.332000732421875,6.659999847412109 C-18.332000732421875,6.659999847412109 5.5980000495910645,0.11999999731779099 5.5980000495910645,0.11999999731779099 C5.748000144958496,0.07000000029802322 5.8979997634887695,0.05000000074505806 6.038000106811523,0.029999999329447746 C8.447999954223633,-0.8100000023841858 9.218000411987305,-1.7000000476837158 9.307999610900879,-3.2799999713897705 C9.307999610900879,-3.2799999713897705 9.307999610900879,-3.9100000858306885 9.307999610900879,-3.9100000858306885 C9.307999610900879,-6.230000019073486 11.187999725341797,-8.109999656677246 13.508000373840332,-8.109999656677246 C13.508000373840332,-8.109999656677246 15.107999801635742,-8.109999656677246 15.107999801635742,-8.109999656677246 C17.42799949645996,-8.109999656677246 19.29800033569336,-6.230000019073486 19.29800033569336,-3.9100000858306885 C19.29800033569336,-3.9100000858306885 19.29800033569336,-2.2200000286102295 19.29800033569336,-2.2200000286102295 C19.29800033569336,-0.8399999737739563 18.17799949645996,0.2800000011920929 16.79800033569336,0.2800000011920929 C16.79800033569336,0.2800000011920929 14.157999992370605,0.2800000011920929 14.157999992370605,0.2800000011920929 C12.998000144958496,2.740000009536743 10.557999610900879,4.440000057220459 6.748000144958496,5.599999904632568 C6.748000144958496,5.599999904632568 6.748000144958496,10.640000343322754 6.748000144958496,10.640000343322754 C6.748000144958496,11.5 6.047999858856201,12.199999809265137 5.188000202178955,12.199999809265137 C5.188000202178955,12.199999809265137 1.1579999923706055,12.199999809265137 1.1579999923706055,12.199999809265137 C0.2879999876022339,12.199999809265137 -0.4020000100135803,11.5 -0.4020000100135803,10.640000343322754 C-0.4020000100135803,10.640000343322754 -0.4020000100135803,7.360000133514404 -0.4020000100135803,7.360000133514404z"></path><g opacity="1" transform="matrix(1,0,0,1,0,0)"></g></g></g><g transform="matrix(1,0,0,1,381,141.5)" opacity="0.9069389991639046" style="display: block;"><path stroke-linecap="round" stroke-linejoin="miter" fill-opacity="0" stroke-miterlimit="4" stroke="rgb(255,255,255)" stroke-opacity="1" stroke-width="17.99647215467159" d=" M47.88999938964844,-86.3479995727539 C78.20600128173828,-69.48500061035156 98.73600006103516,-37.119998931884766 98.73600006103516,0 C98.73600006103516,37.143001556396484 78.18099975585938,69.52400207519531 47.83599853515625,86.37799835205078"></path></g><g transform="matrix(1,0,0,1,381,141.5)" opacity="1" style="display: block;"><path stroke-linecap="round" stroke-linejoin="miter" fill-opacity="0" stroke-miterlimit="4" stroke="rgb(255,255,255)" stroke-opacity="1" stroke-width="17.946876138044185" d=" M24.131000518798828,-42.808998107910156 C39.055999755859375,-34.37099838256836 49.14099884033203,-18.354000091552734 49.14099884033203,0 C49.14099884033203,18.386999130249023 39.02000045776367,34.42900085449219 24.049999237060547,42.854000091552734"></path></g></g></g></g></svg>