<svg width="18" height="20" viewBox="0 0 18 20" fill="none" xmlns="http://www.w3.org/2000/svg"><path fill-rule="evenodd" clip-rule="evenodd" d="M0.820019 7.29641C-0.00641216 8.12284 -0.00641276 9.46275 0.820019 10.2892C1.64645 11.1156 2.98636 11.1156 3.81279 10.2892L6.89729 7.20468V17.8841C6.89729 19.0529 7.84474 20.0004 9.01349 20.0004C10.1822 20.0004 11.1297 19.0529 11.1297 17.8841V7.22501L14.1939 10.2892C15.0203 11.1156 16.3602 11.1156 17.1866 10.2892C18.0131 9.46275 18.0131 8.12284 17.1866 7.29641L10.5101 0.619824C10.0944 0.204119 9.54675 -0.00261376 9.00332 2.49416e-05C8.45989 -0.00261173 7.9123 0.204122 7.4966 0.619823L0.820019 7.29641Z" fill="#1CB0F6"/></svg>